<svg data-v-6805eed4="" version="1.0" xmlns="http://www.w3.org/2000/svg"
    xmlns:xlink="http://www.w3.org/1999/xlink" preserveAspectRatio="xMidYMid meet"
    color-interpolation-filters="sRGB" style="margin: auto;" viewBox="83.12 73.45 172.25 103.1">
    <g data-v-6805eed4="" fill="currentColor"
        transform="translate(85.17660236358643,74.95000304310292)">
        <path fill-opacity="0" stroke="#EF5B24" stroke-width="3"
            d="M 90.0999984741211 20.78598976135254 A 50.04999923706055 50.04999923706055 0 1 0 90.0999984741211 79.31400871276855"></path>
        <g transform="translate(10,20.78598976135254)">
            <g>
                <rect stroke-width="2" x="0" y="0"
                    width="160.1999969482422" height="58.528018951416016" fill-opacity="0"></rect>
            </g>
            <g transform="translate(10,3)">
                <g data-gra="path-name" fill-rule="" class="tp-name">
                    <g transform="scale(1)">
                        <g>
                            <path
                                d="M34-43.62C27.5-50.12 15.02-53.43 1.82-46.34L1.3-0.72C1.3-0.72 29.96 7.21 38.41-8.52 46.8-24.18 40.76-36.92 34-43.62ZM29.12-17.03C24.96-9.29 13.97-13 13.97-13L13.97-37.12C19.96-38.16 24.31-37.9 28.14-33.48 32.05-29.05 31.92-22.3 29.12-17.03ZM76.77-18.91C76.77-18.91 73.26-38.74 55.71-33.54 41.6-29.38 43.23-15.6 44.92-11.18 49.21 0.07 65 6.44 75.59-7.28L67.6-12.61C67.6-12.61 60.19-5.4 55.19-13.78ZM58.76-26.65C63.38-28.28 65.33-23.86 65.33-23.86L55.32-21.32C55.32-21.32 54.15-25.09 58.76-26.65ZM115.7-31.79L103.68-32.89 103.68-30.16C99.13-33.67 91.98-34.77 85.93-30.23 79.04-25.16 74.95-13.65 83.59-3.83 92.24 5.98 104-2.08 104-2.08L104.07 0.91 114.99 2.21ZM100.62-11.57C96.92-9.49 93.6-10.27 91.39-13.65 89.64-16.38 90.03-20.61 92.95-22.75 96.92-25.61 101.01-23.6 102.51-21 103.94-18.39 104.07-13.52 100.62-11.57ZM132.02-44.46C132.02-44.46 129.74-17.23 132.86-14.17 135.33-11.77 138.65-13.85 138.65-13.85L141.5-1.82C141.5-1.82 130.39 4.23 123.37-2.99 116.29-10.21 119.86-45.76 119.86-45.76Z"
                                transform="translate(-1.2999999523162842, 50.31801986694336)"></path>
                        </g>
                    </g>
                </g>
            </g>
        </g>
    </g>
    <defs v-gra="od"></defs>
</svg>